<svg xmlns="http://www.w3.org/2000/svg" viewBox="0 0 512 512"><path fill="#51bae9" d="M398.9 233.8c-16-15.8-20.4-62.9 0-83.8l6.1-7.1 6.1 6.1c19.5 15.5 30.6 33 33.3 52.5 27.2-8.3 47.1-2.9 67.7 10.1 -13.3 27.8-33.9 45.3-79.8 43.4C390.7 358.5 301.3 420.6 168.7 421.6c-70 0-120.2-25.2-150.4-77.7C1.4 312.9-2.2 290.6 1.1 247.9h44.4v-53.5h52.5v-52.5h105V90.4h62.6v104h52.5v53.5C354.1 249 376.5 246.7 398.9 233.8zM93 206.5h3v38.4h-3V206.5zM85.9 206.5h4v38.4h-4V206.5zM78.8 206.5h4v38.4h-4V206.5zM71.8 206.5h4v38.4h-4V206.5zM65.7 206.5h3v38.4h-3V206.5zM58.6 206.5h3v38.4h-3V206.5zM54.6 203.5V248.9h45.4v-45.4H54.6zM145.5 155h3v37.4h-3V155zM138.4 155h3v37.4h-3V155zM131.3 155h4v37.4h-4V155zM124.3 155h4v37.4h-4V155zM117.2 155h4v37.4h-4V155zM111.1 155h3v37.4h-3V155zM107.1 151v45.4h45.4V151H107.1zM145.5 206.5h3v38.4h-3V206.5zM138.4 206.5h3v38.4h-3V206.5zM131.3 206.5h4v38.4h-4V206.5zM124.3 206.5h4v38.4h-4V206.5zM117.2 206.5h4v38.4h-4V206.5zM111.1 206.5h3v38.4h-3V206.5zM107.1 203.5V248.9h45.4v-45.4H107.1zM197 206.5h4v38.4h-4V206.5zM190.9 206.5h3v38.4h-3V206.5zM183.8 206.5h3v38.4h-3V206.5zM176.8 206.5h4v38.4h-4V206.5zM169.7 206.5h4v38.4h-4V206.5zM162.6 206.5h4v38.4h-4V206.5zM159.6 203.5V248.9h45.4v-45.4H159.6zM197 155h4v37.4h-4V155zM190.9 155h3v37.4h-3V155zM183.8 155h3v37.4h-3V155zM176.8 155h4v37.4h-4V155zM169.7 155h4v37.4h-4V155zM162.6 155h4v37.4h-4V155zM159.6 151v45.4h45.4V151H159.6zM249.5 206.5h4v38.4h-4V206.5zM242.4 206.5h4v38.4h-4V206.5zM236.3 206.5h3v38.4h-3V206.5zM229.3 206.5h3v38.4h-3V206.5zM222.2 206.5h4v38.4h-4V206.5zM215.1 206.5h4v38.4h-4V206.5zM212.1 203.5V248.9h44.4v-45.4H212.1zM249.5 155h4v37.4h-4V155zM242.4 155h4v37.4h-4V155zM236.3 155h3v37.4h-3V155zM229.3 155h3v37.4h-3V155zM222.2 155h4v37.4h-4V155zM215.1 155h4v37.4h-4V155zM212.1 151v45.4h44.4V151H212.1zM249.5 102.5h4v37.4h-4V102.5zM242.4 102.5h4v37.4h-4V102.5zM236.3 102.5h3v37.4h-3V102.5zM229.3 102.5h3v37.4h-3V102.5zM222.2 102.5h4v37.4h-4V102.5zM215.1 102.5h4v37.4h-4V102.5zM212.1 98.5v45.4h44.4V98.5H212.1zM302 206.5h3v38.4h-3V206.5zM294.9 206.5h4v38.4h-4V206.5zM287.8 206.5h4v38.4h-4V206.5zM281.8 206.5h3v38.4h-3V206.5zM274.7 206.5h3v38.4h-3V206.5zM267.6 206.5h4v38.4h-4V206.5zM263.6 203.5V248.9h45.4v-45.4H263.6zM149.5 321.6c-3.4 0-6.2 1.3-8.6 4 -2.4 2.7-3.5 5.7-3.5 9.1 0 3.4 1.2 6.2 3.5 8.6 2.4 2.4 5.2 3.5 8.6 3.5s6.2-1.2 8.6-3.5 3.5-5.2 3.5-8.6c0-2.7-0.5-4.9-1.5-6.6 -1-1.7-2.5-3.2-4.5-4.5S151.5 321.6 149.5 321.6zM149.5 325.7c1.3 0 2.4 0.3 3 1 -1.3 0.7-2 1.7-2 3 0 2 1.3 3 4 3 1.3 0 2.4-0.7 3-2 0.7 1.3 1 2.7 1 4 0 6.1-3 9.1-9.1 9.1s-9.1-3-9.1-9.1C140.4 328.7 143.4 325.7 149.5 325.7zM182.8 412.5c-27.6-13.5-46.8-32.3-57.6-56.5 -11.4 3.4-25.2 5.4-41.4 6.1H40.5c33.7 33 76.4 49.8 128.2 50.5H182.8z"/></svg>