<svg xmlns="http://www.w3.org/2000/svg" viewBox="0 0 512 200"><defs><linearGradient id="grd1" x1="224.7" x2="224.7" y1="2.9" y2="242.8" gradientUnits="userSpaceOnUse"><stop offset="0" stop-color="#0994dc"/><stop offset=".3" stop-color="#66cef5"/><stop offset=".3" stop-color="#66cef5"/><stop offset=".8" stop-color="#127bca"/><stop offset=".8" stop-color="#127bca"/><stop offset="1" stop-color="#127bca"/></linearGradient><linearGradient id="grd2" x1="233.9" x2="233.9" y1="-2.8" y2="242.5" gradientUnits="userSpaceOnUse"><stop offset="0" stop-color="#0e76bc"/><stop offset=".4" stop-color="#36aee8"/><stop offset=".4" stop-color="#36aee8"/><stop offset=".8" stop-color="#00adef"/><stop offset=".8" stop-color="#00adef"/><stop offset="1" stop-color="#00adef"/></linearGradient><linearGradient id="grd3" x1="283.4" x2="283.4" y1="189.1" y2="-6.1" gradientUnits="userSpaceOnUse"><stop offset="0" stop-color="#1c63b7"/><stop offset=".5" stop-color="#33bdf2"/><stop offset="1" stop-color="#33bdf2" stop-opacity=".4"/></linearGradient><linearGradient id="grd4" x1="269.9" x2="269.9" y1="-28.5" y2="226.9" gradientUnits="userSpaceOnUse"><stop offset="0" stop-color="#166ab8"/><stop offset=".4" stop-color="#36aee8"/><stop offset=".4" stop-color="#36aee8"/><stop offset=".8" stop-color="#0798dd"/><stop offset=".8" stop-color="#0798dd"/><stop offset="1" stop-color="#0798dd"/></linearGradient><linearGradient id="grd5" x1="250.7" x2="250.7" y1="-26.5" y2="245.1" gradientUnits="userSpaceOnUse"><stop offset="0" stop-color="#124379"/><stop offset=".4" stop-color="#1487cb"/><stop offset=".4" stop-color="#1487cb"/><stop offset=".8" stop-color="#165197"/><stop offset=".8" stop-color="#165197"/><stop offset="1" stop-color="#165197"/></linearGradient><linearGradient id="grd6" x1="136.6" x2="175.7" y1="53.7" y2="53.7" gradientUnits="userSpaceOnUse"><stop offset="0" stop-color="#33bdf2" stop-opacity=".7"/><stop offset="1" stop-color="#1dacd8"/></linearGradient><linearGradient id="grd7" x1="432.6" x2="432.6" y1="184" y2="-6.2" gradientUnits="userSpaceOnUse"><stop offset="0" stop-color="#136ab4"/><stop offset=".6" stop-color="#59caf5" stop-opacity=".6"/><stop offset="1" stop-color="#59caf5" stop-opacity=".2"/></linearGradient><linearGradient id="grd8" x1="-2.1" x2="142.9" y1="99.2" y2="99.2" gradientUnits="userSpaceOnUse"><stop offset="0" stop-color="#05a1e6" stop-opacity=".3"/><stop offset="1" stop-color="#05a1e6"/></linearGradient><linearGradient id="grd9" x1="81.1" x2="81.1" y1="188.9" y2="-5.8" gradientUnits="userSpaceOnUse"><stop offset="0" stop-color="#318ed5"/><stop offset="1" stop-color="#38a7e4"/></linearGradient><linearGradient id="grd10" x1="91.8" x2="91.8" y1="189.9" y2=".2" gradientUnits="userSpaceOnUse"><stop offset="0" stop-color="#05a1e6"/><stop offset="1" stop-color="#05a1e6" stop-opacity=".6"/></linearGradient><linearGradient id="grd11" x1="103.9" x2="103.9" y1="199.8" y2="39.5" gradientUnits="userSpaceOnUse"><stop offset="0" stop-color="#1959a6"/><stop offset=".5" stop-color="#05a1e6"/><stop offset=".5" stop-color="#05a1e6"/><stop offset=".9" stop-color="#7ec5ea"/><stop offset="1" stop-color="#7ec5ea"/></linearGradient><linearGradient id="grd12" x1="108.9" x2="78.3" y1="189.2" y2="15.8" gradientUnits="userSpaceOnUse"><stop offset="0" stop-color="#165096"/><stop offset="1" stop-color="#0d82ca"/></linearGradient><linearGradient id="grd13" x1="398.1" x2="398.1" y1="90.9" y2=".2" gradientUnits="userSpaceOnUse"><stop offset="0" stop-color="#05a1e6"/><stop offset=".9" stop-color="#0495d6"/><stop offset="1" stop-color="#0495d6"/></linearGradient><linearGradient id="grd14" x1="443" x2="406.1" y1="-7" y2="201.9" gradientUnits="userSpaceOnUse"><stop offset="0" stop-color="#38a7e4" stop-opacity=".3"/><stop offset="1" stop-color="#0e88d3"/><stop offset="1" stop-color="#0e88d3"/><stop offset="1" stop-color="#0e88d3"/></linearGradient><linearGradient id="grd15" x1="407.7" x2="407.7" y1="-.3" y2="197.4" gradientUnits="userSpaceOnUse"><stop offset="0" stop-color="#168cd4"/><stop offset=".5" stop-color="#1c87cc"/><stop offset="1" stop-color="#154b8d"/></linearGradient><linearGradient id="grd16" x1="143.3" x2="373.2" y1="-17.5" y2="77.9" gradientUnits="userSpaceOnUse"><stop offset="0" stop-color="#97d6ee"/><stop offset=".7" stop-color="#55c1ea"/><stop offset="1" stop-color="#55c1ea"/></linearGradient><linearGradient id="grd17" x1="183.7" x2="365.3" y1="34.6" y2="-47.7" gradientUnits="userSpaceOnUse"><stop offset="0" stop-color="#7accec"/><stop offset="1" stop-color="#3fb7ed"/></linearGradient><linearGradient id="grd18" x1="380.2" x2="380.2" y1="10.4" y2="203.8" gradientUnits="userSpaceOnUse"><stop offset="0" stop-color="#1da7e7"/><stop offset="1" stop-color="#37abe7" stop-opacity="0"/></linearGradient></defs><path fill="url(#grd1)" d="M177.83 40.84C196.28 96.17 203.27 194.88 257.23 194.88C261.33 194.88 265.49 194.48 269.65 193.71C220.61 182.49 214.79 84.86 184.86 34.3C182.51 36.39 180.19 38.57 177.83 40.84"/><path fill="url(#grd2)" d="M184.86 34.3C214.79 84.86 220.61 182.49 269.65 193.71C273.51 193.01 277.37 191.96 281.24 190.64C237.21 169.48 225.04 74.68 191.05 29.04C188.99 30.72 186.93 32.48 184.86 34.3"/><path fill="#14559a" d="M227.98 4.23C223.89 4.23 219.73 4.63 215.55 5.41C204.64 7.43 193.54 12.03 182.36 19.01C185.41 21.97 188.32 25.35 191.05 29.04C202.43 19.78 213.73 12.95 224.98 8.83C229.2 7.3 233.41 6.15 237.63 5.38C234.59 4.63 231.38 4.23 227.98 4.23Z"/><path fill="url(#grd3)" d="M315.61 171.14C320.11 167.63 324.62 163.75 329.14 159.51C310.39 104.44 303.68 4.32 249.35 4.32C245.46 4.32 241.54 4.67 237.63 5.38C287.12 17.45 293.47 123.04 315.61 171.14"/><path fill="#3092c4" d="M237.64 5.38C234.59 4.63 231.38 4.23 227.98 4.23L249.35 4.31C245.46 4.31 241.55 4.66 237.64 5.38Z"/><path d="M314.65 182.84C312.53 180.85 310.51 178.67 308.53 176.35C299.39 182.69 290.28 187.51 281.24 190.64C284.46 192.18 287.83 193.33 291.41 194.04C294.19 194.59 297.07 194.88 300.08 194.88C310.24 194.88 318.27 193.7 325.09 190.49C321.33 188.49 317.88 185.91 314.65 182.84Z" fill="#1969bc"/><path fill="url(#grd4)" d="M224.97 8.84C269.3 31.58 273.16 134.54 308.53 176.35C310.9 174.71 313.25 172.97 315.59 171.14C293.45 123.04 287.12 17.44 237.64 5.38C233.42 6.16 229.2 7.3 224.97 8.84"/><path fill="url(#grd5)" d="M191.05 29.04C225.04 74.68 237.21 169.49 281.24 190.64C290.29 187.51 299.39 182.7 308.53 176.35C273.16 134.54 269.3 31.58 224.97 8.84C213.72 12.95 202.43 19.78 191.05 29.04"/><path fill="url(#grd6)" d="M156.08 39.51C150.76 51.32 145.31 66.85 138.74 87.12C151.82 69.04 164.86 53.47 177.83 40.85C176.04 35.46 174.12 30.49 172.05 26.07C166.75 30.05 161.41 34.53 156.08 39.51Z"/><path fill="#2b74b1" d="M176.78 22.66C175.22 23.76 173.64 24.88 172.06 26.07C174.13 30.49 176.04 35.46 177.82 40.85C180.18 38.58 182.52 36.4 184.86 34.3C182.35 30.07 179.68 26.17 176.78 22.66Z"/><path fill="#125a9e" d="M182.36 19.01C180.5 20.16 178.65 21.38 176.78 22.66C179.68 26.16 182.34 30.07 184.86 34.31C186.93 32.47 188.99 30.71 191.05 29.03C188.32 25.35 185.41 21.96 182.36 19.01"/><path fill="url(#grd7)" d="M484.73 0.02C459.66 94.83 407.29 170.99 363.39 190.18L363.31 190.18L360.94 191.18L360.65 191.29L359.98 191.54L359.68 191.67L358.58 192.05L358.13 192.2L357.58 192.38L357.05 192.56L356.59 192.71L355.65 192.99L355.25 193.1L354.62 193.26L354.19 193.38L353.5 193.55L352.66 193.73C354.64 194.45 356.71 194.82 358.94 194.82C400.57 194.82 442.54 121.66 512 0L484.73 0L484.73 0.02L484.73 0.02Z"/><path fill="url(#grd8)" d="M129.69 8.08L129.77 8.02L129.87 7.96L129.92 7.96L130.6 7.7L130.73 7.64L130.9 7.57L131.63 7.31L131.66 7.31L133.26 6.77L133.5 6.7L134.19 6.5L134.5 6.41L135.19 6.2L135.45 6.13L137.74 5.55L138.06 5.48L138.73 5.36L139.05 5.26L139.72 5.14L139.88 5.14L141.27 4.88L141.55 4.88L142.19 4.77L142.56 4.71L143.17 4.62L143.51 4.55L145 4.42C143.56 4.29 142.08 4.2 140.57 4.2C93.69 4.2 29.09 89.5 0 199.97L5.61 199.97C14.92 183.69 23.28 168.28 30.93 153.82C51.32 75.57 92.82 22.21 129.69 8.07"/><path d="M156.08 39.51C161.41 34.53 166.75 30.05 172.05 26.07C170.85 23.47 169.59 21.06 168.25 18.85C163.96 23.96 160.04 30.69 156.08 39.51Z" fill="#0d82ca"/><path d="M159.93 8.73C163 11.24 165.74 14.71 168.25 18.86C169.04 17.91 169.84 17.03 170.67 16.2C167.19 13.01 163.43 10.4 159.34 8.43L159.84 8.66L159.93 8.73" fill="#0d82ca"/><path fill="url(#grd9)" d="M30.94 153.82C73.69 73.04 93.94 21.91 129.7 8.08C92.83 22.23 51.32 75.58 30.94 153.82"/><path fill="#127bca" d="M170.67 16.2C169.84 17.04 169.04 17.91 168.24 18.86C169.59 21.06 170.84 23.46 172.06 26.07C173.64 24.88 175.22 23.76 176.78 22.66C174.85 20.32 172.8 18.15 170.67 16.2"/><path fill="url(#grd10)" d="M50.35 199.61L49.57 199.7L49.42 199.7L48.76 199.76L48.65 199.76L47.08 199.87L46.92 199.87C90.18 198.68 109.97 177.44 119.78 146.62C127.24 123.27 133.37 103.59 138.73 87.08C120.61 112.09 102.4 141.91 84.1 175.32C75.28 191.42 61.86 198.14 50.35 199.58"/><path fill="url(#grd11)" d="M50.35 199.59C61.86 198.15 75.28 191.44 84.1 175.33C102.4 141.94 120.62 112.11 138.73 87.1C145.31 66.82 150.75 51.3 156.08 39.49C119.99 73.18 83.76 129.19 50.34 199.57"/><path fill="#05a1e6" d="M30.94 153.83C23.29 168.29 14.92 183.69 5.61 199.98L21.92 199.98C24.08 183.8 27.14 168.39 30.93 153.83"/><path fill="url(#grd12)" d="M143.51 4.59L143.16 4.65L142.55 4.74L142.19 4.8L141.55 4.91L141.27 4.98L139.88 5.21L139.72 5.21L139.05 5.34L138.71 5.43L138.05 5.56L137.74 5.63L135.45 6.22L135.19 6.29L134.49 6.49L134.18 6.58L133.5 6.78L133.25 6.84L131.66 7.39L130.93 7.64L130.63 7.76L129.96 8.01L129.73 8.11C93.98 21.95 73.73 73.07 30.98 153.85C27.18 168.4 24.11 183.82 21.96 200L24.25 200L39.94 199.93L47.13 199.93L48.7 199.83L48.8 199.83L49.46 199.76L49.62 199.76L50.39 199.67C83.81 129.29 120.04 73.28 156.13 39.59C160.1 30.78 164.01 24.04 168.29 18.94C165.78 14.79 163.04 11.32 159.99 8.8L159.9 8.74L159.39 8.49L158.88 8.24L158.39 8.01L157.81 7.77L157.36 7.58L156.41 7.19L156.01 7.04L155.3 6.77L154.92 6.64L153.94 6.31L153.86 6.31L152.72 6L152.47 5.92L151.51 5.66L151.29 5.59C150.52 5.39 149.72 5.23 148.91 5.08L148.67 5.02L147.64 4.85L147.43 4.79L146.21 4.63L146 4.63L145.05 4.53L143.56 4.66"/><path fill="url(#grd13)" d="M386.81 52.51C378.58 78.35 371.92 99.66 366.12 117.2C388.69 86.74 410.92 48.43 432.09 4.22C407.39 11.82 394.22 29.24 386.81 52.51Z"/><path fill="url(#grd14)" d="M366.83 188.57C365.68 189.15 364.53 189.69 363.39 190.19C407.29 170.99 459.66 94.83 484.73 0.02L479.65 0.02C422.05 100.92 403.53 168.47 366.83 188.57"/><path fill="#079ae1" d="M338.17 180.1C347.72 168.66 355.49 149.23 366.12 117.2C353.87 133.7 341.53 147.89 329.19 159.46L329.13 159.56C331.82 167.47 334.77 174.46 338.14 180.09"/><path d="M338.17 180.1C334.92 183.99 331.47 186.95 327.64 189.15C326.81 189.63 325.95 190.08 325.09 190.49C329.14 192.62 333.55 194.06 338.49 194.63L340.68 194.82L340.81 194.82L341.86 194.88L345.43 194.88L345.84 194.82L346.63 194.75L347.01 194.75L347.87 194.66L347.94 194.66L348.2 194.6L349.12 194.46L349.38 194.46L350.41 194.29L350.58 194.29L352.63 193.87C346.96 191.83 342.22 187.04 338.14 180.21" fill="#1969bc"/><path d="M257.23 194.88C261.33 194.88 265.49 194.49 269.65 193.7C273.51 193.02 277.37 191.96 281.24 190.64C284.46 192.18 287.83 193.33 291.41 194.05C294.18 194.6 297.07 194.89 300.09 194.89L257.23 194.89L257.23 194.88Z" fill="#1e5cb3"/><path d="M300.09 194.88C310.23 194.88 318.27 193.7 325.09 190.49C329.14 192.63 333.55 194.06 338.49 194.63L340.68 194.82L340.81 194.82L341.86 194.88L343.12 194.88L300.09 194.88L300.09 194.88Z" fill="#1e5cb3"/><path fill="#1d60b5" d="M343.12 194.88L345.46 194.88L345.87 194.82L346.67 194.75L347.05 194.75L347.9 194.66L347.98 194.66L348.23 194.59L349.15 194.46L349.43 194.4L350.46 194.23L350.62 194.23L352.67 193.81C354.66 194.52 356.73 194.89 358.95 194.89L343.13 194.96L343.12 194.88L343.12 194.88Z"/><path fill="#175fab" d="M329.15 159.56L329.15 159.5C324.63 163.74 320.12 167.62 315.62 171.13C313.27 172.96 310.92 174.7 308.55 176.34C310.54 178.67 312.55 180.85 314.68 182.83C317.9 185.9 321.35 188.49 325.12 190.48C325.97 190.07 326.83 189.62 327.66 189.14C331.49 186.95 334.93 183.98 338.19 180.09C334.82 174.46 331.87 167.47 329.18 159.56"/><path fill="url(#grd15)" d="M463.57 0.02L438 0.02L433.94 0.21L432.06 4.17C410.89 48.38 388.66 86.69 366.09 117.15C355.48 149.18 347.69 168.62 338.14 180.05C342.22 186.88 346.97 191.68 352.62 193.72L353.06 193.62L353.16 193.62L353.47 193.56L354.18 193.39L354.6 193.27L355.23 193.11L355.62 193L356.57 192.72L357.04 192.56L357.56 192.37L358.11 192.21L358.55 192.04L359.65 191.66L359.96 191.55L360.63 191.29L360.92 191.19L363.29 190.19L363.37 190.19C364.51 189.71 365.66 189.15 366.8 188.58C403.5 168.47 422.03 100.93 479.63 0.03L463.55 0.03L463.57 0.02L463.57 0.02Z"/><path fill="#7dcbec" d="M145.01 4.46L145.28 4.52L145.94 4.59L146.17 4.59L147.39 4.75L147.59 4.81L148.62 4.98L148.88 5.04L151.25 5.56L151.47 5.62L152.42 5.88L152.68 5.96L153.81 6.28L153.9 6.34L154.89 6.68L155.27 6.79L155.98 7.08L156.38 7.22L157.32 7.6L157.78 7.79L158.35 8.04L158.85 8.27L159.35 8.52C163.44 10.49 167.2 13.12 170.68 16.3C171.97 14.98 173.31 13.79 174.7 12.72C167.09 7.42 158.45 4.4 148.5 4.4C147.35 4.4 146.2 4.47 145.03 4.55"/><path fill="#5ec5ed" d="M170.67 16.2C172.8 18.15 174.85 20.32 176.78 22.66C178.65 21.39 180.5 20.16 182.36 19.01C179.93 16.62 177.36 14.47 174.68 12.62C173.29 13.68 171.95 14.88 170.67 16.2"/><path fill="url(#grd16)" d="M143.9 4.72L147.38 4.58C157.34 4.58 165.96 7.6 173.58 12.89C181.61 6.66 191.33 4.49 204.83 4.49L139.48 4.49L143.9 4.72Z"/><path fill="url(#grd17)" d="M204.83 4.49C191.33 4.49 181.63 6.66 173.58 12.89C176.23 14.73 178.81 16.88 181.25 19.28C192.45 12.31 203.52 7.68 214.45 5.67C218.62 4.91 222.78 4.51 226.87 4.51L204.83 4.51L204.83 4.49L204.83 4.49Z"/><path fill="url(#grd18)" d="M366.12 117.21C371.93 99.66 378.57 78.36 386.81 52.51C394.24 29.23 407.39 11.82 432.08 4.22L433.98 0.26C393.73 2.63 374.91 22.71 365.45 52.45C348.89 104.36 338.86 138.02 329.2 159.46C341.53 147.9 353.87 133.7 366.12 117.21Z"/></svg>