<svg xmlns="http://www.w3.org/2000/svg" viewBox="0 0 184 400"><path d="M141.21 310.02C147.22 308.57 152.02 307.06 155.66 305.52L144.71 324.74L141.13 387.42C141.13 394.37 119.14 400 92.02 400C64.89 400 42.9 394.37 42.9 387.42L38.38 325.42L26.81 305.58C30.43 307.1 35.19 308.59 41.12 310.02C49.8 312.12 67.83 315.64 91.17 315.64C114.51 315.64 132.54 312.12 141.21 310.02ZM175.98 109.73C177.12 109.35 179.04 108.71 180.89 107.68L169.4 214.54C167.01 216.67 164.88 218.54 163.06 220.11C160.41 222.4 158.22 224.22 156.5 225.59C154.78 226.95 153.44 227.9 152.48 228.45C151.53 229 150.8 229.28 150.31 229.28C149.7 229.28 149.27 229.15 149.01 228.89C148.75 228.63 148.61 228.3 148.61 227.88C148.64 227.57 149.03 226.98 149.77 226.1C150.5 225.22 151.42 224.16 152.5 222.9C153.59 221.64 154.76 220.25 156 218.71C157.25 217.18 158.4 215.6 159.48 213.98C160.55 212.37 161.44 210.76 162.15 209.15C162.86 207.55 163.21 206.05 163.21 204.63C163.21 203.56 162.98 202.62 162.52 201.82C162.06 201.01 161.45 200.34 160.71 199.8C159.98 199.27 159.14 198.86 158.19 198.59C157.25 198.31 156.3 198.17 155.35 198.17C153.96 198.17 152.57 198.47 151.18 199.05C149.79 199.64 148.43 200.39 147.09 201.32C145.76 202.25 144.47 203.3 143.23 204.45C141.98 205.6 140.82 206.77 139.75 207.94C139.84 207.73 139.93 207.41 140.03 206.96C140.14 206.51 140.23 206.03 140.32 205.54C140.4 205.04 140.47 204.56 140.53 204.11C140.59 203.67 140.62 203.34 140.62 203.13C140.62 202.1 140.36 201.32 139.84 200.78C139.32 200.25 138.48 199.98 137.32 199.98C136.57 199.98 135.86 200.39 135.21 201.19C134.56 202 133.97 202.96 133.45 204.06C132.93 205.16 132.47 206.28 132.06 207.42C131.66 208.56 131.34 209.44 131.11 210.06C130.71 211.46 130.27 212.9 129.78 214.37C129.53 214.47 129.3 214.61 129.11 214.81C128.3 215.64 127.38 216.54 126.35 217.52C125.32 218.51 124.24 219.49 123.11 220.47C121.98 221.45 120.85 222.4 119.7 223.31C118.56 224.22 117.46 225.03 116.4 225.74C115.34 226.44 114.36 227.01 113.44 227.44C112.53 227.88 111.77 228.09 111.16 228.09C110.67 228.09 110.34 227.94 110.17 227.63C109.99 227.31 109.9 226.9 109.9 226.39C109.9 225.56 110.06 224.62 110.36 223.57C110.66 222.52 110.97 221.6 111.29 220.8C112.02 218.95 112.88 216.75 113.88 214.22C114.88 211.68 115.95 209.01 117.09 206.18C118.24 203.36 119.41 200.45 120.61 197.47C121.81 194.49 122.99 191.63 124.13 188.87C125.28 186.12 126.35 183.57 127.35 181.22C128.35 178.88 129.21 176.9 129.93 175.28C130.31 174.49 130.62 173.75 130.87 173.06C131.11 172.37 131.24 171.72 131.24 171.1C131.24 169.79 130.87 168.84 130.13 168.25C129.39 167.67 128.57 167.37 127.67 167.37C126.78 167.37 125.89 167.65 125 168.2C124.12 168.75 123.42 169.7 122.89 171.04L109.73 204.37C108.86 206.58 107.91 209.01 106.86 211.66C105.82 214.31 104.79 216.98 103.78 219.67C103.22 221.09 102.74 222.65 102.33 224.34C101.97 224.65 101.6 224.94 101.24 225.22C99.77 226.34 98.38 227.21 97.04 227.83C95.71 228.45 94.6 228.76 93.7 228.76C92.42 228.76 91.79 228.14 91.79 226.9C91.79 225.56 91.98 224.1 92.37 222.54C92.77 220.97 93.26 219.37 93.85 217.73C94.44 216.09 95.09 214.48 95.78 212.9C96.48 211.31 97.12 209.83 97.72 208.43C98.31 207.03 98.8 205.79 99.19 204.71C99.59 203.62 99.78 202.77 99.78 202.15C99.78 201.05 99.48 200.1 98.87 199.31C98.26 198.52 97.44 198.12 96.39 198.12C95.44 198.12 94.64 198.5 94 199.26C93.36 200.01 92.8 200.96 92.31 202.1C91.82 203.24 91.36 204.48 90.94 205.82C90.52 207.16 90.03 208.42 89.48 209.59C88.7 211.35 87.72 213.29 86.55 215.4C85.38 217.52 84.07 219.5 82.62 221.35C81.17 223.19 79.59 224.73 77.88 225.97C76.17 227.21 74.38 227.83 72.5 227.83C71.83 227.83 71.35 227.57 71.06 227.06C70.77 226.54 70.63 225.97 70.63 225.35C70.69 223.87 70.93 222.35 71.37 220.78C71.8 219.21 72.32 217.67 72.93 216.15C73.54 214.64 74.2 213.17 74.91 211.76C75.62 210.35 76.29 209.03 76.93 207.81C77.56 206.59 78.12 205.5 78.6 204.55C79.08 203.61 79.39 202.84 79.53 202.25C79.62 201.95 79.67 201.62 79.67 201.27C79.67 200.75 79.55 200.3 79.32 199.9C79.09 199.51 78.78 199.18 78.41 198.92C78.03 198.66 77.62 198.47 77.19 198.35C76.75 198.23 76.33 198.17 75.93 198.17C75 198.17 74.14 198.46 73.34 199.03C72.55 199.59 71.84 200.53 71.24 201.84C68.86 206.8 67.02 211.02 65.72 214.5C64.42 217.98 63.45 220.81 62.83 223C62.21 225.19 61.84 226.79 61.72 227.81C61.61 228.82 61.55 229.35 61.55 229.38C61.55 230.86 61.75 232.1 62.16 233.08C62.56 234.06 63.1 234.84 63.76 235.43C64.43 236.01 65.2 236.43 66.09 236.67C66.97 236.91 67.89 237.03 68.85 237.03C70.96 237.03 72.92 236.68 74.71 235.97C76.51 235.27 78.13 234.34 79.58 233.21C81.03 232.07 82.31 230.81 83.45 229.43C84.57 228.06 85.52 226.7 86.27 225.35C85.81 227.45 85.57 229.3 85.57 230.88C85.57 233.12 86.01 234.71 86.88 235.63C87.75 236.56 88.88 237.03 90.27 237.03C91.66 237.03 93.22 236.64 94.96 235.87C96.7 235.09 98.46 234.07 100.26 232.79C100.78 232.43 101.29 232.04 101.8 231.64C101.84 231.96 101.88 232.28 101.95 232.59C102.15 233.48 102.5 234.26 102.97 234.91C103.45 235.57 104.09 236.08 104.89 236.46C105.68 236.84 106.67 237.03 107.86 237.03C109.6 237.03 111.39 236.62 113.23 235.79C115.07 234.96 116.92 233.85 118.79 232.46C120.66 231.06 122.53 229.45 124.42 227.63C124.5 227.54 124.59 227.44 124.68 227.36C124.38 228.06 124.1 228.75 123.79 229.46C122.29 232.85 120.74 236.28 119.11 239.74C117.49 243.21 115.9 246.66 114.34 250.1C114.1 250.72 113.85 251.37 113.58 252.04C113.3 252.71 113.03 253.4 112.77 254.11C112.51 254.81 112.29 255.53 112.12 256.25C111.95 256.98 111.86 257.68 111.86 258.37C111.86 259.78 112.2 260.74 112.88 261.24C113.56 261.74 114.42 261.99 115.47 261.99C116.28 261.99 117.01 261.81 117.66 261.45C118.31 261.08 118.89 260.6 119.4 260C119.9 259.4 120.35 258.7 120.74 257.91C121.13 257.11 121.48 256.27 121.76 255.37C121.85 255.06 122.06 254.48 122.37 253.62C122.69 252.76 123.06 251.76 123.48 250.62C123.9 249.48 124.35 248.28 124.83 247C125.31 245.73 125.76 244.51 126.2 243.36C126.63 242.21 127.01 241.2 127.35 240.34C127.68 239.47 127.92 238.89 128.06 238.58C128.18 238.34 128.38 237.9 128.65 237.26C128.93 236.62 129.24 235.9 129.58 235.09C129.93 234.28 130.32 233.42 130.74 232.51C131.16 231.6 131.55 230.71 131.93 229.85C132.31 228.99 132.65 228.21 132.97 227.52C133.29 226.83 133.54 226.3 133.71 225.92C134.29 224.72 134.99 223.4 135.82 221.97C136.65 220.54 137.56 219.12 138.56 217.7C139.56 216.29 140.63 214.93 141.77 213.62C142.92 212.31 144.09 211.15 145.29 210.13C146.49 209.12 147.71 208.31 148.94 207.71C150.17 207.1 151.37 206.8 152.53 206.8C153.19 206.8 153.67 206.92 153.96 207.16C154.25 207.41 154.39 207.73 154.39 208.15C154.39 208.83 154.05 209.73 153.35 210.83C152.66 211.94 151.78 213.15 150.72 214.47C149.67 215.8 148.51 217.21 147.27 218.69C146.02 220.17 144.85 221.63 143.75 223.08C142.65 224.53 141.71 225.92 140.93 227.26C140.14 228.61 139.69 229.8 139.58 230.83C139.55 231 139.53 231.15 139.53 231.27L139.53 231.66C139.53 233.35 140.14 234.67 141.34 235.63C142.54 236.6 144.24 237.08 146.44 237.08C148.79 237.08 150.99 236.63 153.05 235.74C155.1 234.84 157.21 233.58 159.37 231.94C161.53 230.3 163.82 228.35 166.26 226.08C166.91 225.46 167.59 224.83 168.29 224.18L159.81 298.1C158.3 301.97 129.35 311.49 91.17 311.49C53.01 311.49 24.07 301.98 22.53 298.11L16.62 235.94C16.87 236.12 17.12 236.3 17.38 236.46C18.85 237.36 20.59 237.81 22.62 237.81C24.39 237.81 26.23 237.37 28.14 236.51C30.05 235.65 31.95 234.54 33.83 233.18C35.71 231.82 37.55 230.29 39.35 228.58C41.14 226.88 42.81 225.16 44.34 223.44C43.82 225.06 43.23 226.89 42.58 228.94C41.93 230.99 41.32 232.97 40.76 234.89C40.19 236.8 39.71 238.51 39.3 240.03C38.9 241.54 38.68 242.58 38.65 243.13C38.62 243.4 38.61 243.66 38.61 243.9L38.61 244.63C38.61 246.28 38.82 247.42 39.24 248.04C39.66 248.66 40.33 248.97 41.26 248.97C41.81 248.97 42.34 248.77 42.87 248.37C43.39 247.98 43.87 247.48 44.3 246.87C44.73 246.27 45.11 245.63 45.43 244.96C45.75 244.29 45.98 243.68 46.12 243.13C46.18 242.95 46.34 242.4 46.6 241.47C46.86 240.54 47.19 239.39 47.58 238.01C47.97 236.63 48.41 235.09 48.91 233.39C49.4 231.68 49.91 229.94 50.45 228.17C50.98 226.39 51.5 224.66 52.01 222.95C52.52 221.24 52.99 219.7 53.42 218.32C53.86 216.95 54.23 215.8 54.53 214.89C54.84 213.97 55.05 213.43 55.16 213.26C55.68 211.74 56.22 210.29 56.77 208.89C57.32 207.5 57.82 206.11 58.27 204.74C58.72 203.36 59.09 201.95 59.38 200.5C59.67 199.05 59.81 197.5 59.81 195.85C59.81 195.23 59.72 194.68 59.53 194.22C59.34 193.75 59.09 193.38 58.77 193.08C58.45 192.79 58.09 192.57 57.68 192.44C57.27 192.3 56.87 192.23 56.47 192.23C55.62 192.23 54.81 192.51 54.01 193.06C53.21 193.61 52.57 194.54 52.08 195.85L48.04 207.99C47.54 209.02 46.8 210.24 45.82 211.63C44.84 213.03 43.7 214.48 42.43 216C41.16 217.52 39.78 219.01 38.3 220.49C36.83 221.98 35.36 223.3 33.89 224.47C32.43 225.64 31.02 226.59 29.66 227.31C28.3 228.04 27.08 228.4 26.01 228.4C25.05 228.4 24.26 228.13 23.64 227.6C23.02 227.07 22.52 226.39 22.16 225.56C21.8 224.73 21.56 223.81 21.42 222.79C21.3 221.78 21.23 220.79 21.23 219.82C21.23 216.93 21.7 213.67 22.64 210.03C23.58 206.4 24.85 202.71 26.44 198.97C28.04 195.23 29.87 191.58 31.94 188.02C34.01 184.45 36.18 181.28 38.44 178.51C40.69 175.74 42.97 173.51 45.28 171.82C47.58 170.13 49.74 169.29 51.77 169.29C53.08 169.29 54.28 169.66 55.4 170.4C56.51 171.14 57.54 172.34 58.46 173.99C59.45 175.82 60.34 177.22 61.14 178.2C61.93 179.18 62.79 179.67 63.72 179.67C64.73 179.67 65.61 179.23 66.35 178.33C67.09 177.43 67.46 176.21 67.46 174.66C67.46 174.01 67.39 173.31 67.26 172.57C67.13 171.83 66.82 171.1 66.33 170.37C64.18 167.13 61.88 164.79 59.42 163.34C56.96 161.9 54.41 161.17 51.77 161.17C49.48 161.17 47.17 161.67 44.84 162.67C42.51 163.67 40.2 165.06 37.91 166.83C35.62 168.61 33.4 170.72 31.22 173.19C29.05 175.65 27 178.35 25.07 181.27C23.15 184.2 21.37 187.31 19.73 190.6C18.09 193.89 16.65 197.26 15.41 200.7C14.8 202.38 14.25 204.07 13.76 205.76L3.14 107.68C4.99 108.71 6.92 109.35 8.05 109.73C12.8 111.3 19.52 112.71 28 113.9C45.13 116.3 67.87 117.62 92.02 117.62C116.17 117.62 138.9 116.3 156.03 113.9C164.52 112.71 171.23 111.3 175.98 109.73ZM181.9 101C181.9 107.88 141.63 113.46 91.95 113.46C42.27 113.46 2 107.88 2 101C2 94.12 42.27 88.54 91.95 88.54C141.63 88.54 181.9 94.12 181.9 101ZM117.17 101.72C111.27 101.72 106.48 103.03 106.48 104.64C106.48 106.26 111.27 107.56 117.17 107.56C123.08 107.56 127.86 106.26 127.86 104.64C127.86 103.03 123.08 101.72 117.17 101.72Z" fill="#DA4648"/><path d="M108.65 103.35C108.6 103.43 108.57 103.52 108.57 103.61C108.57 104.65 112.42 105.5 117.17 105.5C121.93 105.5 125.78 104.65 125.78 103.61L137.02 57.85L181.72 10.46C181.73 10.45 181.74 10.43 181.76 10.42C182.7 9.34 180.78 6.02 177.6 3.17C174.41 0.31 170.97 -0.65 169.9 0.43C169.9 0.44 169.89 0.45 169.88 0.46L122.19 50.85L108.65 103.35Z" fill="#DA4648"/></svg>