<svg xmlns="http://www.w3.org/2000/svg" viewBox="0 0 512 256"><path fill="#6181b6" d="M256 0C397.38 0 512 57.31 512 128C512 198.69 397.38 256 256 256C114.62 256 0 198.69 0 128C0 57.31 114.62 0 256 0ZM189.39 152.94C194.51 148.29 198.66 143.05 201.84 137.44C205.02 131.84 207.27 125.54 208.6 118.78C211.84 102.35 209.4 89.34 201.28 80.18C193.17 71.01 180.26 65.99 162.56 65.99L103.73 65.99L76.43 206.55L107.02 206.55L114.28 165.21L140.48 165.21C152.04 165.21 161.55 165.7 169.02 163.3C176.49 160.9 183.28 158.58 189.39 152.94ZM278.69 165.21L309.52 165.21L322.22 102.2C324.8 89.08 322.86 81.06 316.41 75.21C309.95 69.36 298.22 65.99 281.2 65.99L254.16 65.99L261.42 28.78L231.06 28.78L203.76 165.21L234.12 165.21L249.75 86.66L274.01 86.66C281.78 86.66 286.86 88.36 289.25 90.9C291.63 93.43 292.13 98.61 290.76 105.59L278.69 165.21ZM447.38 119C450.62 102.57 448.17 89.34 440.07 80.18C431.95 71.01 419.04 65.99 401.34 65.99L342.51 65.99L315.21 206.55L345.81 206.55L353.06 165.21L379.27 165.21C390.83 165.21 400.34 165.7 407.81 163.3C415.28 160.9 422.06 158.58 428.17 152.94C433.3 148.29 437.45 143.16 440.62 137.55C443.8 131.95 446.05 125.76 447.38 119ZM389.75 86.66C401.37 86.66 409.12 89.54 413 93.77C416.87 98.01 417.79 106.04 415.76 116.34C413.65 127.06 409.58 134.17 403.54 138.75C397.5 143.34 388.31 144.54 375.98 144.54L357.37 144.54L368.79 86.66L389.75 86.66ZM174.21 93.77C178.08 98.01 179 106.04 176.97 116.34C174.86 127.06 170.79 134.17 164.75 138.75C158.71 143.34 149.52 144.54 137.19 144.54L118.58 144.54L130.01 86.66L150.97 86.66C162.59 86.66 170.33 89.54 174.21 93.77Z"/></svg>