<svg xmlns="http://www.w3.org/2000/svg" viewBox="0 0 512 320"><path d="M428 100C428 82 430 66 422 53 403 19 355 0 259 0L259 3 257 3 259 3 259 0C163 0 113 19 94 53 86 67 87 82 86 100 85 114 78 130 81 146 84 167 86 188 89 207 91 223 113 237 115 252 120 293 163 312 259 312L259 315 256 315 257 315 259 315 259 312C355 312 396 293 401 252 403 236 423 223 425 207 428 188 430 167 433 146 436 130 429 114 428 100Z" fill="#efcca3"/><path d="M257 114C275 115 287 126 298 136 311 148 333 156 343 166 352 176 364 186 368 202 372 218 374 238 374 244 374 249 376 248 384 244 403 234 424 209 424 209 422 225 401 239 399 254 394 296 355 315 257 315L257 315 257 315 259 315" fill="#ccac8d"/><path d="M321 83C324 95 337 138 312 124 312 124 323 130 329 153 336 176 352 179 352 179 352 179 379 184 399 167 416 152 418 126 411 106 404 87 391 81 372 77 354 72 316 69 321 83Z" fill="#ccac8d"/><path d="M368 165C349 165 333 149 333 129 333 109 349 93 368 93 388 93 403 109 403 129 403 149 388 165 368 165Z" /><path d="M359 123C354 123 350 118 350 113 350 108 354 104 359 104 364 104 368 108 368 113 368 118 364 123 359 123Z" fill="#FFF"/><path d="M315 127C315 127 346 149 363 171 380 192 380 196 380 196L368 202C368 202 350 168 329 156 307 143 304 133 304 133L315 127Z" fill="#efcca3"/><path d="M259 114C241 115 229 126 217 136 204 148 181 156 171 166 162 176 150 186 146 202 141 218 140 238 140 244 140 249 140 249 129 244 110 235 89 209 89 209 92 225 112 239 114 254 120 296 159 315 257 315L257 315 257 315 259 315" fill="#ccac8d"/><path d="M351 183C332 159 301 137 259 137L258 137 258 137C215 137 185 159 165 183 146 208 147 218 147 241 147 326 177 302 196 313 216 323 237 320 258 320L258 320 259 320C280 320 301 322 321 312 340 302 370 327 370 242 370 218 371 208 351 183Z" fill="#56332b"/><path d="M257 158C257 158 254 197 248 205L259 203 257 158Z" fill="#442823"/><path d="M259 158C259 158 262 197 268 205L257 203 259 158Z" fill="#442823"/><path d="M226 149C222 139 236 124 259 124 282 124 296 139 292 149 288 158 274 161 259 162 245 161 230 158 226 149Z" fill="#56332b"/><path d="M259 158C259 156 273 156 280 151 280 151 265 156 262 154 259 152 258 147 258 147 258 147 257 152 254 154 251 155 235 151 235 151 235 151 257 157 257 158 257 159 257 163 257 166 257 176 257 201 258 203 261 207 260 176 260 166 259 163 259 160 259 158Z" /><path d="M260 212C267 212 279 217 289 225 279 213 267 205 260 205 253 205 237 214 227 227 238 218 252 212 260 212Z" fill="#7f4a41"/><path d="M257 284C242 284 227 279 213 276 211 275 208 277 205 276 180 268 159 254 147 237 147 238 147 240 147 241 147 326 177 302 196 312 216 322 237 319 258 319L258 319 259 319C280 319 301 322 321 312 340 302 370 326 370 241 370 238 370 235 370 232 359 251 337 266 311 275 309 276 303 274 301 274 286 279 273 284 257 284Z" fill="#442823"/><path d="M219 238C219 238 209 269 216 282L207 278C207 278 213 247 219 238Z" fill="#442823"/><path d="M298 238C298 238 308 269 301 282L311 278C311 278 303 247 298 238Z" fill="#442823"/><path d="M193 83C190 95 177 138 202 124 202 124 191 130 185 153 179 176 162 179 162 179 162 179 135 184 115 167 98 152 96 126 103 106 110 86 123 81 142 77 160 72 197 69 193 83Z" fill="#ccac8d"/><path d="M259 205C269 205 303 229 303 257 303 257 303 257 303 256 303 226 276 202 259 202 241 202 214 226 214 256 214 256 214 257 214 257 214 229 248 205 259 205Z" /><path d="M267 149C266 149 264 147 263 144 262 140 263 137 264 137 266 137 268 139 269 142 270 145 269 148 267 149Z" fill="#331712"/><path d="M247 149C245 148 245 145 246 142 246 139 249 137 250 137 252 138 253 141 252 144 251 147 248 149 247 149Z" fill="#331712"/><path d="M148 165C128 165 113 149 113 129 113 109 128 93 148 93 167 93 183 109 183 129 183 149 167 165 148 165Z" /><path d="M157 123C152 123 148 118 148 113 148 108 152 104 157 104 162 104 166 108 166 113 166 118 162 123 157 123Z" fill="#FFF"/><path d="M269 130C269 129 260 134 257 134 255 134 246 129 246 130 246 130 253 130 257 130 261 130 269 130 269 130Z" fill="#7f4a41"/><path d="M199 127C199 127 167 149 150 171 133 192 134 196 134 196L146 202C146 202 163 168 185 156 207 143 209 133 209 133L199 127Z" fill="#efcca3"/><path d="M130 63C130 63 119 93 95 105 95 105 133 101 130 63Z" fill="#ccac8d"/><path d="M382 63C382 63 393 93 417 105 417 105 379 101 382 63Z" fill="#ccac8d"/><path d="M314 119C314 119 290 93 259 93L259 93C258 93 259 93 259 93 259 93 259 93 259 93L259 93C227 93 204 119 204 119 232 99 255 99 259 99L259 99 259 99 259 99 259 99C259 99 286 99 314 119Z" fill="#ccac8d"/><path d="M286 66C286 66 274 49 258 48L258 48 259 48 259 48 259 48C247 49 231 66 231 66 245 52 259 53 259 53L259 53 259 53 259 53 259 53C259 53 272 52 286 66Z" fill="#ccac8d"/><path d="M148 190C148 190 129 200 116 194L116 194 115 194 115 194 115 194C103 187 97 166 97 166 97 166 109 203 148 190Z" fill="#ccac8d"/><path d="M367 190C367 190 386 200 399 194L399 194 399 194 399 194 399 194C415 187 418 166 418 166 418 166 406 203 367 190Z" fill="#ccac8d"/><path d="M169 60C180 58 197 58 211 63 228 69 214 91 217 92 221 93 226 77 258 78 290 80 294 95 298 92 303 90 294 52 342 60 342 60 291 47 294 84 294 84 265 61 224 82 224 82 235 47 169 60Z" fill="#ccac8d"/><path d="M347 60C347 60 348 61 348 61 349 61 348 60 347 60Z" fill="#ccac8d"/><path d="M347 60L347 60 347 60Z" fill="#ccac8d"/><path d="M155 11C155 11 112 66 106 87 100 108 95 196 89 209L69 122 106 32 155 11Z" fill="#ccac8d"/><path d="M359 11C359 11 402 66 408 87 414 108 419 196 425 209L445 122 408 32 359 11Z" fill="#ccac8d"/><path d="M357 11C357 11 403 50 416 95 430 141 424 196 435 203 450 213 466 155 472 149 481 139 510 114 512 110 514 105 453 37 426 24 394 9 354 7 357 11Z" fill="#56332b"/><path d="M396 35C396 35 451 106 450 194L472 149C472 149 452 91 396 35Z" fill="#442823"/><path d="M155 11C155 11 109 50 96 95 82 141 88 196 77 203 62 213 46 155 40 149 31 139 2 114 0 110 -2 105 59 37 86 24 118 9 158 7 155 11Z" fill="#56332b"/><path d="M116 35C116 35 61 106 62 194L40 149C40 149 60 91 116 35Z" fill="#442823"/><path d="M86 196C86 196 90 218 97 225 103 232 99 220 99 220 99 220 92 216 93 188 94 160 86 196 86 196Z" fill="#ccac8d"/><path d="M427 196C427 196 423 218 417 225 410 232 415 220 415 220 415 220 422 216 420 188 419 160 427 196 427 196Z" fill="#ccac8d"/><path d="M217 183C215 183 214 181 214 179 214 178 215 176 217 176 219 176 220 178 220 179 220 181 219 183 217 183Z" fill="#442823"/><path d="M199 202C197 202 195 201 195 199 195 197 197 196 199 196 200 196 202 197 202 199 202 201 200 202 199 202Z" fill="#442823"/><path d="M193 183C191 183 189 181 189 179 189 178 191 176 193 176 194 176 196 178 196 179 196 181 194 183 193 183Z" fill="#442823"/><path d="M295 183C293 183 292 181 292 179 292 178 293 176 295 176 297 176 298 178 298 179 298 181 297 183 295 183Z" fill="#442823"/><path d="M313 202C312 202 310 201 310 199 310 197 312 196 313 196 315 196 317 197 317 199 317 201 315 202 313 202Z" fill="#442823"/><path d="M319 183C318 183 316 181 316 179 316 178 318 176 319 176 321 176 323 178 323 179 323 181 321 183 319 183Z" fill="#442823"/></svg>