<svg xmlns="http://www.w3.org/2000/svg" viewBox="0 0 109.5 124.5"><path d="M95.9,24.2c-0.1-0.6-0.6-1-1.1-1c-0.5,0-10-0.7-10-0.7s-6.6-6.6-7.4-7.3c-0.7-0.7-2.2-0.5-2.7-0.3 c-0.1,0-1.5,0.4-3.7,1.1c-2.2-6.4-6.1-12.3-13-12.3c-0.2,0-0.4,0-0.6,0C55.4,1.1,53,0,50.9,0C34.8,0,27.1,20.1,24.7,30.3 c-6.2,1.9-10.7,3.3-11.2,3.5c-3.5,1.1-3.6,1.2-4,4.5C9.1,40.7,0,111.2,0,111.2l71,13.3l38.5-8.3C109.5,116.2,96,24.9,95.9,24.2z M67,17.2c-1.8,0.6-3.8,1.2-6,1.9c0-0.4,0-0.8,0-1.3c0-4-0.6-7.2-1.4-9.7C63.2,8.5,65.5,12.5,67,17.2z M55.2,8.8 c1,2.5,1.6,6,1.6,10.8c0,0.2,0,0.5,0,0.7c-3.9,1.2-8.2,2.5-12.4,3.8C46.8,15,51.3,10.5,55.2,8.8z M50.4,4.3c0.7,0,1.4,0.2,2.1,0.7 c-5.1,2.4-10.7,8.5-13,20.7c-3.4,1.1-6.7,2.1-9.8,3C32.4,19.4,38.9,4.3,50.4,4.3z" fill="#95bf47"/><path d="M94.8,23.2c-0.5,0-10-0.7-10-0.7s-6.6-6.6-7.4-7.3c-0.3-0.3-0.6-0.4-1-0.5L71,124.5l38.5-8.3 c0,0-13.5-91.3-13.6-91.9C95.8,23.6,95.2,23.3,94.8,23.2z" fill="#5e8e3e"/><path d="M57.9,44.5l-4.7,14.1c0,0-4.2-2.2-9.2-2.2c-7.5,0-7.8,4.7-7.8,5.9c0,6.4,16.8,8.9,16.8,24 c0,11.9-7.5,19.5-17.7,19.5c-12.2,0-18.4-7.6-18.4-7.6l3.3-10.8c0,0,6.4,5.5,11.8,5.5c3.5,0,5-2.8,5-4.8c0-8.4-13.8-8.8-13.8-22.6 c0-11.6,8.3-22.9,25.2-22.9C54.7,42.6,57.9,44.5,57.9,44.5z" fill="#fff"/></svg>