<svg xmlns="http://www.w3.org/2000/svg" viewBox="0 0 50 50" width="512" height="512"><path fill="#007CAA" d="M24.906 1c-.11.016-.215.047-.312.094l-19.782 8.5c-.109.023-.214.066-.312.125a1 1 0 0 0-.406.437l-.032.031a1.056 1.056 0 0 0-.062.188v.063a1.016 1.016 0 0 0 0 .406c.008.043.02.086.031.125l1.25 19.468a.992.992 0 0 0 .407.75l7.406 5.375c-.125.614-.219 1.211-.219 1.813C12.875 44.227 18.325 49 25 49c6.676 0 12.094-4.77 12.094-10.625 0-.59-.07-1.18-.188-1.781l7.407-5.407a.992.992 0 0 0 .406-.75L46 10.782v-.031a1.502 1.502 0 0 0 0-.188v-.03-.063-.031a.918.918 0 0 0-.094-.282 1.273 1.273 0 0 0-.093-.156.472.472 0 0 0-.063-.063v-.03a.954.954 0 0 0-.344-.22l-.187-.062-19.813-8.531a1.004 1.004 0 0 0-.5-.094zM25 3.094l17.781 7.625L25 20.844 7.219 10.719zm0 2.625L21.969 7.03l1.156.719a.496.496 0 0 1 .219.375.498.498 0 0 1-.157.406l-1.718 1.656 4.5-1.843a.497.497 0 0 1 .593.156.51.51 0 0 1-.03.625l-1.376 1.625 2.188-.781c.195-.07.394 0 .531.156.133.156.16.379.063.563l-1.282 2.468 3.25 1.906 7.25-4.124zM20.844 7.5l-8 3.438L25 17.843l3.906-2.219-3.187-1.875a.49.49 0 0 1-.188-.656l.938-1.75-2.75.969a.472.472 0 0 1-.563-.188.482.482 0 0 1 .032-.594l1.25-1.5-5.063 2.094a.516.516 0 0 1-.625-.188c-.133-.203-.082-.46.094-.624L22.03 8.25zm-14.75 4.875L24 22.563V42.03L7.25 29.844zm37.812 0L42.75 29.844 26 42.03V22.563zm-2.937 4.5l-12.375 7.531-.219 12.75L40.031 29zm-32 .219l.812 11.468 11.313 8.094-.282-12.187z"/></svg>