<svg xmlns="http://www.w3.org/2000/svg" viewBox="0 0 480 512"><path fill="#2c8ebb" d="M202.88 54.08C202.88 54.08 224.31 -11.06 244.1 1.64C250.2 5.6 272.13 54.41 272.13 54.41C272.13 54.41 295.55 40.72 298.18 45.83C328.72 138.91 300.6 204.53 260.26 256.9C313.91 307 323.24 358.33 312.86 423.28C363.33 423.39 389.31 374.2 453.68 371.17C482.54 370.68 484.02 404.48 462.26 409.76C417.51 416.08 373.38 466 283.18 491.38C271.54 509.09 202.03 507.11 147.31 511.99C89.4 512.61 104.36 467.51 125.21 459.89C111.61 452.48 111.06 445.09 108.39 445.87C93.91 523 54.41 499.5 30.23 492.87C11.6 482.97 31.55 459.72 31.55 459.72C13.41 467.5 -0.91 433.22 1.21 399.53C3.19 372.66 33.2 346.6 33.2 346.6C31.41 279.5 51.01 235.85 103.11 199.19C84.91 177.75 63.91 143.25 91.61 103.06C127.66 93 134.66 50.25 202.88 54.08Z"/></svg>