<svg enable-background="new 0 0 24 24" height="512" viewBox="0 0 24 24" width="512" xmlns="http://www.w3.org/2000/svg"><path d="m2.497 24c-.66 0-1.2-.54-1.2-1.2v-13.768h21.405v13.768c0 .663-.537 1.2-1.2 1.2z" fill="#ffb74d"/><path d="m14.919 13.297h-5.838c-.537 0-.973-.436-.973-.973s.436-.973.973-.973h5.838c.537 0 .973.436.973.973s-.436.973-.973.973z" fill="#795548"/><path d="m23.5 9.032h-23c-.276 0-.5-.224-.5-.5v-4.04h24v4.041c0 .276-.224.499-.5.499z" fill="#ffcc80"/><path d="m20.432 0h-16.864l-3.568 4.492h24z" fill="#ffa726"/></svg>