<?xml version="1.0" encoding="iso-8859-1"?>
<!-- Generator: Adobe Illustrator 19.0.0, SVG Export Plug-In . SVG Version: 6.00 Build 0)  -->
<svg version="1.1" id="Capa_1" xmlns="http://www.w3.org/2000/svg" xmlns:xlink="http://www.w3.org/1999/xlink" x="0px" y="0px"
	 viewBox="0 0 490.667 490.667" style="enable-background:new 0 0 490.667 490.667;" xml:space="preserve">
<path style="fill:#ECEFF1;" d="M245.333,64C145.186,64,64,145.186,64,245.333s81.186,181.333,181.333,181.333
	s181.333-81.186,181.333-181.333C426.549,145.234,345.432,64.118,245.333,64z"/>
<path style="fill:#FFC107;" d="M480,234.667h-64c-5.891,0-10.667,4.776-10.667,10.667c-0.094,88.327-71.673,159.906-160,160
	c-5.891,0-10.667,4.776-10.667,10.667v64c0,5.891,4.776,10.667,10.667,10.667c135.431-0.153,245.181-109.903,245.333-245.333
	C490.667,239.442,485.891,234.667,480,234.667z"/>
<path style="fill:#4CAF50;" d="M245.333,0c-5.891,0-10.667,4.776-10.667,10.667v64c0,5.891,4.776,10.667,10.667,10.667
	c88.327,0.094,159.906,71.673,160,160c0,5.891,4.776,10.667,10.667,10.667h64c5.891,0,10.667-4.776,10.667-10.667
	C490.514,109.903,380.764,0.153,245.333,0z"/>
<path style="fill:#2196F3;" d="M245.333,405.333c-88.327-0.094-159.906-71.673-160-160c0-5.891-4.776-10.667-10.667-10.667h-64
	C4.776,234.667,0,239.442,0,245.333c0.153,135.431,109.903,245.181,245.333,245.333c5.891,0,10.667-4.776,10.667-10.667v-64
	C256,410.109,251.224,405.333,245.333,405.333z"/>
<path style="fill:#F44336;" d="M245.333,0C109.903,0.153,0.153,109.903,0,245.333C0,251.224,4.776,256,10.667,256h64
	c5.891,0,10.667-4.776,10.667-10.667c0.094-88.327,71.673-159.906,160-160c5.891,0,10.667-4.776,10.667-10.667v-64
	C256,4.776,251.224,0,245.333,0z"/>
<path style="fill:#1565C0;" d="M336.576,236.459l-128-85.333c-4.904-3.264-11.526-1.934-14.79,2.971
	c-1.164,1.749-1.785,3.803-1.786,5.904v170.667c0.003,5.891,4.781,10.664,10.672,10.661c2.101-0.001,4.155-0.623,5.904-1.786
	l128-85.333c4.901-3.268,6.225-9.891,2.957-14.792C338.752,238.245,337.747,237.24,336.576,236.459L336.576,236.459z"/>
<g>
</g>
<g>
</g>
<g>
</g>
<g>
</g>
<g>
</g>
<g>
</g>
<g>
</g>
<g>
</g>
<g>
</g>
<g>
</g>
<g>
</g>
<g>
</g>
<g>
</g>
<g>
</g>
<g>
</g>
</svg>
