<?xml version="1.0" encoding="iso-8859-1"?>
<!-- Generator: Adobe Illustrator 19.0.0, SVG Export Plug-In . SVG Version: 6.00 Build 0)  -->
<svg version="1.1" id="Capa_1" xmlns="http://www.w3.org/2000/svg" xmlns:xlink="http://www.w3.org/1999/xlink" x="0px" y="0px"
	 viewBox="0 0 512 512" style="enable-background:new 0 0 512 512;" xml:space="preserve">
<path style="fill:#607D8B;" d="M10.667,42.667h490.667c5.891,0,10.667,4.776,10.667,10.667v405.333
	c0,5.891-4.776,10.667-10.667,10.667H10.667C4.776,469.333,0,464.558,0,458.667V53.333C0,47.442,4.776,42.667,10.667,42.667z"/>
<g>
	<path style="fill:#FAFAFA;" d="M32,106.667H10.667C4.776,106.667,0,101.891,0,96c0-5.891,4.776-10.667,10.667-10.667H32
		c5.891,0,10.667,4.776,10.667,10.667C42.667,101.891,37.891,106.667,32,106.667z"/>
	<path style="fill:#FAFAFA;" d="M138.667,106.667H96c-5.891,0-10.667-4.776-10.667-10.667c0-5.891,4.776-10.667,10.667-10.667
		h42.667c5.891,0,10.667,4.776,10.667,10.667C149.333,101.891,144.558,106.667,138.667,106.667z"/>
	<path style="fill:#FAFAFA;" d="M266.667,106.667H224c-5.891,0-10.667-4.776-10.667-10.667c0-5.891,4.776-10.667,10.667-10.667
		h42.667c5.891,0,10.667,4.776,10.667,10.667C277.333,101.891,272.558,106.667,266.667,106.667z"/>
	<path style="fill:#FAFAFA;" d="M394.667,106.667H352c-5.891,0-10.667-4.776-10.667-10.667c0-5.891,4.776-10.667,10.667-10.667
		h42.667c5.891,0,10.667,4.776,10.667,10.667C405.333,101.891,400.558,106.667,394.667,106.667z"/>
	<path style="fill:#FAFAFA;" d="M501.333,106.667H480c-5.891,0-10.667-4.776-10.667-10.667c0-5.891,4.776-10.667,10.667-10.667
		h21.333C507.224,85.333,512,90.109,512,96C512,101.891,507.224,106.667,501.333,106.667z"/>
	<path style="fill:#FAFAFA;" d="M32,426.667H10.667C4.776,426.667,0,421.891,0,416c0-5.891,4.776-10.667,10.667-10.667H32
		c5.891,0,10.667,4.776,10.667,10.667C42.667,421.891,37.891,426.667,32,426.667z"/>
	<path style="fill:#FAFAFA;" d="M138.667,426.667H96c-5.891,0-10.667-4.776-10.667-10.667c0-5.891,4.776-10.667,10.667-10.667
		h42.667c5.891,0,10.667,4.776,10.667,10.667C149.333,421.891,144.558,426.667,138.667,426.667z"/>
	<path style="fill:#FAFAFA;" d="M266.667,426.667H224c-5.891,0-10.667-4.776-10.667-10.667c0-5.891,4.776-10.667,10.667-10.667
		h42.667c5.891,0,10.667,4.776,10.667,10.667C277.333,421.891,272.558,426.667,266.667,426.667z"/>
	<path style="fill:#FAFAFA;" d="M394.667,426.667H352c-5.891,0-10.667-4.776-10.667-10.667c0-5.891,4.776-10.667,10.667-10.667
		h42.667c5.891,0,10.667,4.776,10.667,10.667C405.333,421.891,400.558,426.667,394.667,426.667z"/>
	<path style="fill:#FAFAFA;" d="M501.333,426.667H480c-5.891,0-10.667-4.776-10.667-10.667c0-5.891,4.776-10.667,10.667-10.667
		h21.333c5.891,0,10.667,4.776,10.667,10.667C512,421.891,507.224,426.667,501.333,426.667z"/>
</g>
<g>
	<path style="fill:#455A64;" d="M117.333,128h277.333c5.891,0,10.667,4.776,10.667,10.667v234.667
		c0,5.891-4.776,10.667-10.667,10.667H117.333c-5.891,0-10.667-4.776-10.667-10.667V138.667
		C106.667,132.776,111.442,128,117.333,128z"/>
	<path style="fill:#455A64;" d="M437.333,128h64c5.891,0,10.667,4.776,10.667,10.667v234.667c0,5.891-4.776,10.667-10.667,10.667
		h-64c-5.891,0-10.667-4.776-10.667-10.667V138.667C426.667,132.776,431.442,128,437.333,128z"/>
	<path style="fill:#455A64;" d="M10.667,128h64c5.891,0,10.667,4.776,10.667,10.667v234.667c0,5.891-4.776,10.667-10.667,10.667h-64
		C4.776,384,0,379.224,0,373.333V138.667C0,132.776,4.776,128,10.667,128z"/>
</g>
<g>
</g>
<g>
</g>
<g>
</g>
<g>
</g>
<g>
</g>
<g>
</g>
<g>
</g>
<g>
</g>
<g>
</g>
<g>
</g>
<g>
</g>
<g>
</g>
<g>
</g>
<g>
</g>
<g>
</g>
</svg>
