<svg xmlns="http://www.w3.org/2000/svg" viewBox="0 0 512 512"><path fill="#555" d="M179.53 403.23L209.58 371.51C213 367.9 212.67 362.21 209.02 358.93L91.81 256L209.02 153.07C212.78 149.79 213 144.1 209.58 140.49L179.53 108.77C176.21 105.27 170.58 105.05 167.04 108.33L14.82 249.66C11.06 253.16 11.06 258.95 14.82 262.45L167.04 403.67C170.58 406.95 176.1 406.73 179.53 403.23Z" /><path fill="#555" d="M344.98 403.67L497.18 262.47C500.94 258.97 500.94 253.18 497.18 249.68L344.98 108.37C341.44 105.09 335.81 105.2 332.49 108.81L302.43 140.52C299 144.13 299.33 149.82 302.98 153.1L420.25 256.02L302.98 358.94C299.22 362.22 299 367.91 302.43 371.51L332.49 403.23C335.92 406.73 341.44 406.95 344.98 403.67Z"/></svg>