<svg xmlns="http://www.w3.org/2000/svg" viewBox="0 0 512 512"><path fill="#2196F3" d="M464 284c-11 1-20 2-26 5s-11 8-15 14c-4 7-7 15-8 25-2 8-2 21-2 39 0 30-2 51-4 63-3 12-8 22-15 29-8 8-19 13-33 17-9 3-24 5-45 5h-12v-56c17 0 28-1 33-3 5-3 9-6 11-10 3-4 4-10 4-20l2-54c1-17 3-30 6-39 4-10 8-18 14-25s13-13 22-18c-12-7-20-15-26-22-7-10-12-23-15-39l-3-72c0-12-1-20-3-24-2-3-6-6-11-9-5-2-16-3-34-3V31h12c21 0 38 2 49 5 11 4 20 9 28 17s13 17 16 29c2 11 4 29 4 54 0 29 1 47 3 56 4 12 9 21 16 27 7 5 18 8 32 9v56z"/><path fill="#2196F3" d="M48 284v-56c11-1 20-2 26-5s11-8 15-14c4-7 7-15 8-25 2-8 2-21 2-39 0-31 2-52 5-64 2-12 7-21 15-28 7-8 18-13 32-17 9-3 24-5 45-5h12v56c-17 0-29 1-33 3-5 2-9 5-11 9-3 4-4 11-4 21l-2 55c-1 16-3 28-6 38-3 9-7 17-12 24-5 6-13 12-24 19 10 5 17 11 23 19 6 7 10 15 13 25 4 11 6 24 7 41l1 50c0 10 1 17 4 21 2 4 6 7 11 10 5 2 16 3 33 3v56h-12c-21 0-38-2-49-5-11-4-21-9-28-17-8-8-13-17-16-29-2-11-4-29-4-54 0-29-1-47-3-56-4-12-9-21-16-27-7-5-18-8-32-9z"/></svg>