<?xml version="1.0" encoding="iso-8859-1"?>
<!-- Generator: Adobe Illustrator 19.0.0, SVG Export Plug-In . SVG Version: 6.00 Build 0)  -->
<svg version="1.1" id="Capa_1" xmlns="http://www.w3.org/2000/svg" xmlns:xlink="http://www.w3.org/1999/xlink" x="0px" y="0px"
	 viewBox="0 0 512.005 512.005" style="enable-background:new 0 0 512.005 512.005;" xml:space="preserve">
<path style="fill:#CFD8DC;" d="M437.345,0.005H202.679c-5.891,0-10.667,4.776-10.667,10.667v117.333H74.679
	c-5.891,0-10.667,4.776-10.667,10.667v362.667c0,5.891,4.776,10.667,10.667,10.667h362.667c5.891,0,10.667-4.776,10.667-10.667
	V10.671C448.012,4.78,443.236,0.005,437.345,0.005z"/>
<path style="fill:#B0BEC5;" d="M206.753,0.815c-3.985-1.654-8.574-0.745-11.627,2.304l-128,128
	c-4.171,4.16-4.179,10.914-0.019,15.085c2.006,2.011,4.731,3.139,7.571,3.134h128c5.891,0,10.667-4.776,10.667-10.667v-128
	C213.345,6.355,210.742,2.464,206.753,0.815z"/>
<path style="fill:#F44336;" d="M137.676,470.746c-4.267-0.009-8.512-0.619-12.608-1.813c-14.933-4.267-17.813-13.376-18.155-18.368
	c-1.195-17.792,31.04-42.944,96-74.944c7.467-15.189,13.696-29.739,18.219-40.256l3.84-8.939c4.926-11.607,9.199-23.479,12.8-35.563
	c-21.733-28.332-29.035-65.168-19.755-99.648c3.869-11.923,14.799-20.14,27.328-20.544h0.192c8.613,0.052,16.593,4.534,21.12,11.861
	c13.12,20.437,5.163,66.517-5.568,104.299c4.04,5.261,8.423,10.25,13.12,14.933c11.979,12.005,24.954,22.974,38.784,32.789
	c26.353-7.059,54.304-5.168,79.467,5.376c7.974,4.808,12.859,13.43,12.885,22.741c0.446,9.233-4.984,17.743-13.547,21.227
	c-18.027,7.488-50.923-5.419-83.2-26.731c-16.591,3.408-32.784,8.527-48.32,15.275c-14.933,6.571-28.843,13.035-41.579,19.2
	C198.732,431.109,171.511,470.746,137.676,470.746z M129.143,447.791c0.512,0.192,1.131,0.427,1.899,0.64
	c18.496,5.397,37.099-13.739,53.035-38.763c-20.436,9.378-39.06,22.282-55.019,38.123H129.143z M342.476,352.623
	c21.461,11.051,37.461,14.528,41.515,11.413c0.405-2.529-0.871-5.031-3.157-6.187c-12.084-5.185-25.347-6.998-38.379-5.248
	L342.476,352.623z M253.559,311.045c-3.328,9.749-6.528,18.027-9.088,23.915l-3.797,8.832c-2.304,5.397-4.843,11.307-7.595,17.515
	c6.002-2.745,12.217-5.532,18.645-8.363c11.135-4.848,22.598-8.904,34.304-12.139c-9.405-7.45-18.379-15.427-26.88-23.893
	c-1.941-1.963-3.797-3.925-5.611-5.888L253.559,311.045z M245.345,192.005c-3.029,0-5.568,2.517-7.573,7.36
	c-5.348,20.94-2.518,43.131,7.915,62.059c6.741-29.504,9.557-57.323,3.115-67.349C248.169,192.753,246.808,191.938,245.345,192.005z
	"/>
<g>
</g>
<g>
</g>
<g>
</g>
<g>
</g>
<g>
</g>
<g>
</g>
<g>
</g>
<g>
</g>
<g>
</g>
<g>
</g>
<g>
</g>
<g>
</g>
<g>
</g>
<g>
</g>
<g>
</g>
</svg>
