<?xml version="1.0" encoding="iso-8859-1"?>
<!-- Generator: Adobe Illustrator 19.0.0, SVG Export Plug-In . SVG Version: 6.00 Build 0)  -->
<svg version="1.1" id="Capa_1" xmlns="http://www.w3.org/2000/svg" xmlns:xlink="http://www.w3.org/1999/xlink" x="0px" y="0px"
	 viewBox="0 0 490.667 490.667" style="enable-background:new 0 0 490.667 490.667;" xml:space="preserve">
<path style="fill:#607D8B;" d="M482.582,106.956L439.915,96.29c-0.843-0.216-1.711-0.323-2.581-0.32h-384
	c-0.871-0.003-1.738,0.104-2.581,0.32L8.086,106.956c-4.75,1.185-8.084,5.451-8.085,10.347V415.97
	c-0.036,5.891,4.711,10.695,10.602,10.731c0.414,0.002,0.827-0.019,1.238-0.065l192-21.333c5.429-0.601,9.526-5.205,9.493-10.667
	v-21.333h64v21.333c-0.033,5.462,4.065,10.066,9.493,10.667l192,21.333H480c5.891,0,10.667-4.776,10.667-10.667V117.303
	C490.666,112.407,487.332,108.141,482.582,106.956z"/>
<path style="fill:#455A64;" d="M288,351.97h-85.333c-5.891,0-10.667,4.776-10.667,10.667v32c0,18.24,22.933,32,53.333,32
	s53.333-13.76,53.333-32v-32C298.667,356.745,293.891,351.97,288,351.97z"/>
<path style="fill:#CFD8DC;" d="M252.886,88.418C235.947,71.5,171.115,63.97,149.334,63.97c-18.56,0-80.853,1.771-103.552,24.448
	c-1.999,2.004-3.12,4.721-3.115,7.552v277.333c-0.011,5.891,4.757,10.675,10.648,10.686c2.84,0.005,5.565-1.123,7.571-3.134
	c12.501-12.523,54.613-18.219,88.448-18.219c28.373,0,79.851,9.6,88.448,18.219c4.16,4.171,10.914,4.179,15.085,0.019
	c2.011-2.006,3.139-4.731,3.134-7.571V95.97C256.005,93.139,254.885,90.422,252.886,88.418z"/>
<path style="fill:#B0BEC5;" d="M448,95.97v277.333c-0.021,4.306-2.63,8.177-6.613,9.813c-1.269,0.588-2.655,0.879-4.053,0.853
	c-2.829,0.037-5.542-1.125-7.467-3.2c-8.747-8.533-60.16-18.133-88.533-18.133c-33.92,0-75.947,5.76-88.533,18.133
	c-1.949,2.04-4.646,3.196-7.467,3.2l-0.427-301.013c9.999-6.041,20.971-10.3,32.427-12.587c21.051-4.364,42.502-6.509,64-6.4
	c14.3,0.344,28.558,1.699,42.667,4.053c21.664,1.615,42.574,8.658,60.8,20.48C446.875,90.427,448.037,93.14,448,95.97z"/>
<g>
	<path style="fill:#90A4AE;" d="M100.672,180.236c15.402-6.464,31.958-9.73,48.661-9.6c16.449-0.77,32.847,2.366,47.851,9.152
		c4.994,3.125,11.576,1.61,14.7-3.384c3.125-4.994,1.61-11.576-3.384-14.7c-0.109-0.068-0.219-0.134-0.33-0.198
		c-18.274-8.951-38.511-13.148-58.837-12.203c-19.952-0.191-39.722,3.814-58.027,11.755c-5.302,2.58-7.508,8.97-4.928,14.272
		c2.58,5.302,8.97,7.508,14.272,4.928L100.672,180.236z"/>
	<path style="fill:#90A4AE;" d="M208.15,225.484c-18.27-8.94-38.498-13.13-58.816-12.181c-19.952-0.191-39.722,3.814-58.027,11.755
		c-5.302,2.58-7.508,8.97-4.928,14.272c2.58,5.302,8.97,7.508,14.272,4.928c15.408-6.474,31.971-9.748,48.683-9.621
		c16.449-0.77,32.847,2.366,47.851,9.152c5.103,2.943,11.626,1.191,14.569-3.912c2.868-4.974,1.285-11.325-3.582-14.371
		L208.15,225.484z"/>
	<path style="fill:#90A4AE;" d="M208.15,289.484c-18.27-8.94-38.498-13.13-58.816-12.181c-19.952-0.191-39.722,3.814-58.027,11.755
		c-5.302,2.58-7.508,8.97-4.928,14.272c2.58,5.302,8.97,7.508,14.272,4.928c15.408-6.474,31.971-9.748,48.683-9.621
		c16.449-0.77,32.847,2.366,47.851,9.152c5.103,2.943,11.626,1.191,14.569-3.912c2.868-4.974,1.285-11.325-3.582-14.371
		L208.15,289.484z"/>
</g>
<path style="fill:#2196F3;" d="M384,68.023V287.97c-0.021,4.306-2.63,8.177-6.613,9.813c-1.269,0.588-2.655,0.879-4.053,0.853
	c-2.829,0.037-5.542-1.125-7.467-3.2l-35.2-34.987l-35.2,34.987c-2.944,3.163-7.573,4.106-11.52,2.347
	c-3.983-1.636-6.592-5.507-6.613-9.813V70.37c21.051-4.364,42.502-6.509,64-6.4C355.634,64.314,369.891,65.669,384,68.023z"/>
<g>
</g>
<g>
</g>
<g>
</g>
<g>
</g>
<g>
</g>
<g>
</g>
<g>
</g>
<g>
</g>
<g>
</g>
<g>
</g>
<g>
</g>
<g>
</g>
<g>
</g>
<g>
</g>
<g>
</g>
</svg>
