<svg viewBox="0 0 1000 700" fill="none" xmlns="http://www.w3.org/2000/svg">
<path d="M416.224 76.763C448.443 43.193 493.298 22.372 542.906 22.372C608.852 22.372 666.386 59.144 697.026 113.733C723.652 101.837 753.124 95.219 784.132 95.219C903.072 95.219 999.5 192.487 999.5 312.466C999.5 432.459 903.072 529.727 784.132 529.727C769.886 529.735 755.674 528.319 741.71 525.5C714.729 573.628 663.313 606.146 604.298 606.146C579.593 606.146 556.226 600.44 535.421 590.293C508.069 654.63 444.344 699.741 370.073 699.741C292.729 699.741 226.812 650.802 201.51 582.167C190.453 584.515 178.997 585.739 167.242 585.739C75.155 585.74 0.5 510.317 0.5 417.262C0.5 354.903 34.042 300.455 83.878 271.325C73.618 247.717 67.911 221.66 67.911 194.265C67.911 87.25 154.79 0.5 261.948 0.5C324.862 0.5 380.775 30.413 416.224 76.763ZM145.196 363.11C144.57 364.747 145.424 365.089 145.623 365.373C147.501 366.739 149.409 367.722 151.33 368.817C161.519 374.224 171.14 375.803 181.201 375.803C201.693 375.803 214.415 364.903 214.415 347.356V347.015C214.415 330.791 200.057 324.9 186.58 320.645L184.83 320.076C174.669 316.774 165.903 313.929 165.903 307.24V306.885C165.903 301.164 171.026 296.951 178.967 296.951C187.79 296.951 198.264 299.883 205.009 303.611C205.009 303.611 206.987 304.892 207.713 302.971C208.111 301.946 211.527 292.753 211.883 291.757C212.267 290.675 211.584 289.878 210.887 289.451C203.188 284.769 192.543 281.567 181.529 281.567L179.48 281.581C160.724 281.581 147.632 292.909 147.632 309.146V309.488C147.632 326.607 162.076 332.157 175.61 336.028L177.787 336.697C187.649 339.728 196.145 342.332 196.145 349.277V349.619C196.145 355.966 190.624 360.69 181.715 360.69C178.257 360.69 167.228 360.619 155.317 353.09C153.879 352.25 153.04 351.639 151.93 350.97C151.347 350.6 149.881 349.959 149.241 351.895L145.196 363.11ZM445.194 363.11C444.568 364.747 445.422 365.089 445.621 365.373C447.499 366.739 449.407 367.722 451.327 368.817C461.516 374.224 471.138 375.803 481.198 375.803C501.69 375.803 514.413 364.903 514.413 347.356V347.015C514.413 330.791 500.054 324.9 486.577 320.645L484.827 320.076C474.666 316.774 465.899 313.929 465.899 307.24V306.885C465.899 301.164 471.022 296.951 478.963 296.951C487.786 296.951 498.26 299.883 505.006 303.611C505.006 303.611 506.984 304.892 507.709 302.971C508.107 301.946 511.523 292.753 511.879 291.757C512.264 290.675 511.58 289.878 510.883 289.451C503.184 284.769 492.539 281.567 481.525 281.567L479.475 281.581C460.719 281.581 447.627 292.909 447.627 309.146V309.488C447.627 326.607 462.071 332.157 475.605 336.028L477.782 336.697C487.644 339.728 496.155 342.332 496.155 349.277V349.619C496.155 355.966 490.619 360.69 481.71 360.69C478.253 360.69 467.224 360.619 455.313 353.09C453.875 352.25 453.022 351.667 451.941 350.97C451.57 350.728 449.834 350.059 449.236 351.895L445.194 363.11ZM649.995 328.74C649.995 338.659 648.145 346.471 644.502 351.993C640.901 357.458 635.451 360.119 627.853 360.119C620.24 360.119 614.818 357.472 611.274 351.993C607.687 346.486 605.867 338.659 605.867 328.74C605.867 318.836 607.687 311.037 611.274 305.572C614.818 300.165 620.24 297.532 627.853 297.532C635.452 297.532 640.902 300.165 644.517 305.572C648.146 311.036 649.995 318.835 649.995 328.74ZM667.101 310.354C665.421 304.675 662.803 299.666 659.317 295.497C655.83 291.313 651.419 287.955 646.181 285.507C640.958 283.074 634.783 281.836 627.853 281.836C620.908 281.836 614.732 283.074 609.509 285.507C604.272 287.955 599.861 291.314 596.36 295.497C592.888 299.681 590.269 304.69 588.576 310.354C586.911 316.003 586.071 322.179 586.071 328.74C586.071 335.301 586.911 341.491 588.576 347.126C590.269 352.79 592.874 357.8 596.375 361.983C599.861 366.167 604.287 369.511 609.51 371.887C614.746 374.264 620.908 375.473 627.854 375.473C634.784 375.473 640.946 374.264 646.182 371.887C651.405 369.511 655.83 366.166 659.318 361.983C662.804 357.813 665.422 352.804 667.102 347.126C668.782 341.477 669.621 335.286 669.621 328.74C669.621 322.194 668.78 316.003 667.101 310.354ZM807.568 357.47C806.999 355.805 805.391 356.431 805.391 356.431C802.901 357.385 800.253 358.267 797.436 358.708C794.575 359.148 791.43 359.377 788.057 359.377C779.776 359.377 773.201 356.915 768.491 352.048C763.766 347.181 761.119 339.312 761.147 328.667C761.176 318.976 763.509 311.689 767.708 306.14C771.878 300.619 778.225 297.786 786.692 297.786C793.751 297.786 799.13 298.597 804.764 300.376C804.764 300.376 806.116 300.959 806.756 299.195C808.25 295.039 809.36 292.065 810.954 287.497C811.41 286.202 810.3 285.647 809.901 285.49C807.681 284.622 802.444 283.214 798.488 282.616C794.788 282.047 790.462 281.748 785.652 281.748C778.464 281.748 772.061 282.972 766.583 285.42C761.118 287.853 756.479 291.211 752.808 295.396C749.136 299.58 746.347 304.588 744.483 310.252C742.633 315.901 741.694 322.106 741.694 328.667C741.694 342.855 745.522 354.324 753.079 362.721C760.649 371.146 772.02 375.429 786.849 375.429C795.615 375.429 804.609 373.651 811.07 371.103C811.07 371.103 812.308 370.505 811.767 369.069L807.568 357.47ZM837.497 319.238C838.308 313.731 839.831 309.148 842.179 305.577C845.723 300.155 851.13 297.181 858.73 297.181C866.33 297.181 871.353 300.169 874.953 305.577C877.344 309.148 878.383 313.931 878.796 319.238H837.497ZM895.089 307.127C893.638 301.648 890.037 296.112 887.675 293.579C883.946 289.566 880.304 286.763 876.689 285.197C871.964 283.176 866.3 281.839 860.096 281.839C852.867 281.839 846.306 283.049 840.984 285.553C835.648 288.058 831.166 291.474 827.65 295.729C824.134 299.969 821.488 305.021 819.808 310.756C818.115 316.463 817.261 322.682 817.261 329.241C817.261 335.916 818.144 342.135 819.894 347.727C821.659 353.363 824.476 358.329 828.29 362.441C832.089 366.583 836.985 369.828 842.848 372.089C848.669 374.338 855.742 375.505 863.867 375.49C880.589 375.433 889.397 371.705 893.026 369.698C893.667 369.343 894.279 368.717 893.509 366.924L889.724 356.321C889.156 354.742 887.547 355.325 887.547 355.325C883.405 356.862 877.515 359.623 863.781 359.595C854.802 359.581 848.141 356.934 843.971 352.792C839.688 348.552 837.596 342.318 837.226 333.524L895.131 333.581C895.131 333.581 896.653 333.553 896.811 332.072C896.868 331.448 898.804 320.177 895.089 307.127ZM373.762 319.238C374.587 313.731 376.096 309.148 378.444 305.577C381.987 300.155 387.395 297.181 394.994 297.181C402.593 297.181 407.617 300.169 411.231 305.577C413.607 309.148 414.646 313.931 415.059 319.238H373.762ZM423.94 293.579C420.211 289.566 416.568 286.763 412.954 285.197C408.229 283.176 402.566 281.839 396.361 281.839C389.146 281.839 382.571 283.049 377.249 285.553C371.913 288.058 367.43 291.474 363.915 295.729C360.4 299.969 357.753 305.021 356.074 310.756C354.395 316.463 353.527 322.682 353.527 329.241C353.527 335.916 354.409 342.135 356.16 347.727C357.925 353.363 360.743 358.329 364.556 362.441C368.356 366.583 373.251 369.828 379.114 372.089C384.935 374.338 392.007 375.505 400.133 375.49C416.854 375.433 425.663 371.705 429.292 369.698C429.933 369.343 430.544 368.717 429.776 366.924L426.005 356.321C425.421 354.742 423.814 355.325 423.814 355.325C419.673 356.862 413.795 359.623 400.034 359.595C391.069 359.581 384.409 356.934 380.239 352.792C375.955 348.552 373.864 342.318 373.493 333.524L431.398 333.581C431.398 333.581 432.92 333.553 433.077 332.072C433.132 331.448 435.067 320.177 431.339 307.127C429.888 301.648 426.302 296.112 423.94 293.579ZM248.601 357.153C246.338 355.345 246.025 354.89 245.257 353.723C244.118 351.944 243.535 349.411 243.535 346.195C243.535 341.1 245.214 337.443 248.701 334.981C248.659 334.996 253.682 330.641 265.493 330.797C273.789 330.911 281.203 332.135 281.203 332.135V358.462H281.217C281.217 358.462 273.86 360.041 265.578 360.539C253.795 361.251 248.558 357.139 248.601 357.153ZM271.64 316.467C269.292 316.296 266.246 316.196 262.603 316.196C257.637 316.196 252.841 316.822 248.344 318.032C243.819 319.241 239.749 321.135 236.248 323.638C232.752 326.133 229.879 329.401 227.852 333.187C225.803 337.001 224.764 341.498 224.764 346.536C224.764 351.659 225.646 356.113 227.411 359.757C229.176 363.414 231.723 366.459 234.967 368.808C238.183 371.156 242.154 372.877 246.764 373.916C251.304 374.955 256.455 375.481 262.091 375.481C268.025 375.481 273.945 374.998 279.68 374.015C285.358 373.047 292.331 371.638 294.266 371.198C295.623 370.871 296.975 370.525 298.322 370.159C299.76 369.804 299.646 368.266 299.646 368.266L299.617 315.314C299.617 303.701 296.515 295.091 290.41 289.755C284.333 284.433 275.382 281.742 263.813 281.742C259.472 281.742 252.485 282.341 248.301 283.18C248.301 283.18 235.65 285.628 230.441 289.698C230.441 289.698 229.303 290.41 229.929 292.004L234.028 303.019C234.54 304.442 235.921 303.958 235.921 303.958C235.921 303.958 236.362 303.787 236.875 303.488C248.018 297.426 262.106 297.611 262.106 297.611C268.368 297.611 273.178 298.863 276.422 301.353C279.581 303.772 281.189 307.429 281.189 315.142V317.59C276.208 316.879 271.64 316.467 271.64 316.467ZM738.669 286.631C739.109 285.321 738.185 284.695 737.8 284.553C736.819 284.169 731.895 283.13 728.095 282.888C720.824 282.447 716.783 283.671 713.167 285.293C709.581 286.915 705.597 289.533 703.376 292.508V285.464C703.376 284.482 702.679 283.699 701.711 283.699H686.868C685.901 283.699 685.204 284.481 685.204 285.464V371.83C685.204 372.798 686.001 373.595 686.968 373.595H702.181C703.151 373.589 703.934 372.8 703.931 371.83V328.683C703.931 322.891 704.572 317.114 705.853 313.485C707.105 309.898 708.813 307.024 710.919 304.96C713.039 302.911 715.444 301.474 718.077 300.663C720.766 299.837 723.74 299.567 725.847 299.567C728.878 299.567 732.208 300.349 732.208 300.349C733.317 300.477 733.944 299.794 734.313 298.784C735.31 296.137 738.128 288.21 738.669 286.631ZM590.153 245.237C587.932 244.839 585.286 244.639 582.284 244.639C571.809 244.639 563.555 247.599 557.764 253.433C552 259.24 548.086 268.077 546.122 279.704L545.41 283.617H532.262C532.262 283.617 530.668 283.56 530.326 285.297L528.178 297.35C528.021 298.489 528.52 299.214 530.056 299.214H542.85L529.871 371.677C528.86 377.512 527.693 382.308 526.398 385.95C525.131 389.537 523.894 392.226 522.357 394.19C520.877 396.069 519.482 397.463 517.062 398.274C515.07 398.943 512.765 399.256 510.246 399.256C508.851 399.256 506.988 399.027 505.607 398.743C504.241 398.472 503.515 398.174 502.476 397.732C502.476 397.732 500.982 397.164 500.384 398.658C499.914 399.896 496.499 409.273 496.086 410.427C495.688 411.579 496.257 412.476 496.982 412.746C498.69 413.344 499.956 413.742 502.276 414.297C505.493 415.052 508.21 415.094 510.757 415.094C516.079 415.094 520.946 414.34 524.974 412.889C529.016 411.423 532.544 408.875 535.675 405.432C539.048 401.703 541.168 397.804 543.19 392.468C545.196 387.202 546.919 380.656 548.284 373.029L561.334 299.214H580.403C580.403 299.214 582.01 299.271 582.339 297.521L584.501 285.482C584.644 284.33 584.16 283.618 582.608 283.618H564.094C564.194 283.206 565.033 276.687 567.154 270.555C568.065 267.951 569.772 265.83 571.21 264.378C572.634 262.955 574.27 261.945 576.064 261.361C577.899 260.763 579.992 260.479 582.283 260.479C584.019 260.479 585.74 260.678 587.035 260.948C588.828 261.333 589.525 261.532 589.996 261.675C591.889 262.244 592.144 261.689 592.515 260.779L596.941 248.626C597.396 247.314 596.272 246.759 595.874 246.603C594.024 246.034 592.345 245.649 590.153 245.237ZM337.194 371.834V248.254C337.194 247.287 336.497 246.504 335.529 246.504H320.174C319.206 246.504 318.523 247.287 318.523 248.254V371.834C318.523 372.802 319.206 373.585 320.174 373.585H335.529C336.497 373.585 337.194 372.802 337.194 371.834Z" fill="#00A1E0"/>
</svg>

